HIERARCHY
ROOT hip
{
  OFFSET 84.0756 64.8035 128.71
  CHANNELS 6 Xposition Yposition Zposition Zrotation Xrotation Yrotation
  JOINT abdomen
  {
    OFFSET 0 20.6881 -0.73152
    CHANNELS 3 Zrotation Xrotation Yrotation
    JOINT chest
    {
      OFFSET 0 11.7043 -0.48768
      CHANNELS 3 Zrotation Xrotation Yrotation
      JOINT neck
      {
        OFFSET 0 22.1894 -2.19456
        CHANNELS 3 Zrotation Xrotation Yrotation
        JOINT head
        {
          OFFSET -0.24384 7.07133 1.2192
          CHANNELS 3 Zrotation Xrotation Yrotation
          JOINT leftEye
          {
            OFFSET 4.14528 8.04674 8.04672
            CHANNELS 3 Zrotation Xrotation Yrotation
            End Site
            {
              OFFSET 1 0 0
            }
          }
          JOINT rightEye
          {
            OFFSET -3.6576 8.04674 8.04672
            CHANNELS 3 Zrotation Xrotation Yrotation
            End Site
            {
              OFFSET 1 0 0
            }
          }
        }
      }
      JOINT rCollar
      {
        OFFSET -2.68224 19.2634 -4.8768
        CHANNELS 3 Zrotation Xrotation Yrotation
        JOINT rShldr
        {
          OFFSET -8.77824 -1.95073 1.46304
          CHANNELS 3 Zrotation Xrotation Yrotation
          JOINT rForeArm
          {
            OFFSET -28.1742 -1.7115 0.48768
            CHANNELS 3 Zrotation Xrotation Yrotation
            JOINT rHand
            {
              OFFSET -22.5879 0.773209 7.07136
              CHANNELS 3 Zrotation Xrotation Yrotation
              JOINT rThumb1
              {
                OFFSET -1.2192 -0.487915 3.41376
                CHANNELS 3 Zrotation Xrotation Yrotation
                JOINT rThumb2
                {
                  OFFSET -3.37035 -0.52449 3.41376
                  CHANNELS 3 Zrotation Xrotation Yrotation
                  End Site
                  {
                    OFFSET -1.78271 -1.18214 1.43049
                  }
                }
              }
              JOINT rIndex1
              {
                OFFSET -7.75947 0.938293 5.60832
                CHANNELS 3 Zrotation Xrotation Yrotation
                JOINT rIndex2
                {
                  OFFSET -2.54057 -0.884171 1.56538
                  CHANNELS 3 Zrotation Xrotation Yrotation
                  End Site
                  {
                    OFFSET -1.62519 -0.234802 1.16502
                  }
                }
              }
              JOINT rMid1
              {
                OFFSET -8.24714 1.18213 3.41376
                CHANNELS 3 Zrotation Xrotation Yrotation
                JOINT rMid2
                {
                  OFFSET -3.10165 -0.590103 1.0647
                  CHANNELS 3 Zrotation Xrotation Yrotation
                  End Site
                  {
                    OFFSET -2.48547 -0.328903 0.83742
                  }
                }
              }
              JOINT rRing1
              {
                OFFSET -8.82822 0.546677 1.51678
                CHANNELS 3 Zrotation Xrotation Yrotation
                JOINT rRing2
                {
                  OFFSET -2.60934 -0.819778 -0.0198488
                  CHANNELS 3 Zrotation Xrotation Yrotation
                  End Site
                  {
                    OFFSET -2.33842 -0.294052 0.168128
                  }
                }
              }
              JOINT rPinky1
              {
                OFFSET -8.27202 -0.0477905 -0.4584
                CHANNELS 3 Zrotation Xrotation Yrotation
                JOINT rPinky2
                {
                  OFFSET -1.82734 -0.647385 -0.700984
                  CHANNELS 3 Zrotation Xrotation Yrotation
                  End Site
                  {
                    OFFSET -1.69225 -0.51767 -0.607171
                  }
                }
              }
            }
          }
        }
      }
      JOINT lCollar
      {
        OFFSET 2.68224 19.2634 -4.8768
        CHANNELS 3 Zrotation Xrotation Yrotation
        JOINT lShldr
        {
          OFFSET 8.77824 -1.95073 1.46304
          CHANNELS 3 Zrotation Xrotation Yrotation
          JOINT lForeArm
          {
            OFFSET 28.1742 -1.7115 0.48768
            CHANNELS 3 Zrotation Xrotation Yrotation
            JOINT lHand
            {
              OFFSET 22.5879 0.773209 7.07136
              CHANNELS 3 Zrotation Xrotation Yrotation
              JOINT lThumb1
              {
                OFFSET 1.2192 -0.487915 3.41376
                CHANNELS 3 Zrotation Xrotation Yrotation
                JOINT lThumb2
                {
                  OFFSET 3.37035 -0.52449 3.41376
                  CHANNELS 3 Zrotation Xrotation Yrotation
                  End Site
                  {
                    OFFSET 1.78271 -1.18214 1.43049
                  }
                }
              }
              JOINT lIndex1
              {
                OFFSET 7.75947 0.938293 5.60832
                CHANNELS 3 Zrotation Xrotation Yrotation
                JOINT lIndex2
                {
                  OFFSET 2.54057 -0.884171 1.56538
                  CHANNELS 3 Zrotation Xrotation Yrotation
                  End Site
                  {
                    OFFSET 1.62519 -0.234802 1.16502
                  }
                }
              }
              JOINT lMid1
              {
                OFFSET 8.24714 1.18213 3.41376
                CHANNELS 3 Zrotation Xrotation Yrotation
                JOINT lMid2
                {
                  OFFSET 3.10165 -0.590103 1.0647
                  CHANNELS 3 Zrotation Xrotation Yrotation
                  End Site
                  {
                    OFFSET 2.48547 -0.328903 0.83742
                  }
                }
              }
              JOINT lRing1
              {
                OFFSET 8.82822 0.546677 1.51678
                CHANNELS 3 Zrotation Xrotation Yrotation
                JOINT lRing2
                {
                  OFFSET 2.60934 -0.819778 -0.0198488
                  CHANNELS 3 Zrotation Xrotation Yrotation
                  End Site
                  {
                    OFFSET 2.33842 -0.294052 0.168128
                  }
                }
              }
              JOINT lPinky1
              {
                OFFSET 8.27202 -0.0477905 -0.4584
                CHANNELS 3 Zrotation Xrotation Yrotation
                JOINT lPinky2
                {
                  OFFSET 1.82734 -0.647385 -0.700984
                  CHANNELS 3 Zrotation Xrotation Yrotation
                  End Site
                  {
                    OFFSET 1.69225 -0.51767 -0.607171
                  }
                }
              }
            }
          }
        }
      }
    }
  }
  JOINT rButtock
  {
    OFFSET -8.77824 4.35084 1.2192
    CHANNELS 3 Zrotation Xrotation Yrotation
    JOINT rThigh
    {
      OFFSET 0 -1.70687 -2.19456
      CHANNELS 3 Zrotation Xrotation Yrotation
      JOINT rShin
      {
        OFFSET 0 -36.8199 0.73152
        CHANNELS 3 Zrotation Xrotation Yrotation
        JOINT rFoot
        {
          OFFSET 0.73152 -45.1104 -5.12064
          CHANNELS 3 Zrotation Xrotation Yrotation
          End Site
          {
            OFFSET -1.1221 -3.69964 12.103
          }
        }
      }
    }
  }
  JOINT lButtock
  {
    OFFSET 8.77824 4.35084 1.2192
    CHANNELS 3 Zrotation Xrotation Yrotation
    JOINT lThigh
    {
      OFFSET 0 -1.70687 -2.19456
      CHANNELS 3 Zrotation Xrotation Yrotation
      JOINT lShin
      {
        OFFSET 0 -36.8199 0.73152
        CHANNELS 3 Zrotation Xrotation Yrotation
        JOINT lFoot
        {
          OFFSET -0.73152 -45.1104 -5.12064
          CHANNELS 3 Zrotation Xrotation Yrotation
          End Site
          {
            OFFSET 1.1221 -3.69964 12.103
          }
        }
      }
    }
  }
}
MOTION
Frames:	4
Frame Time:	0.00833333
51.5408 63.7509 3.08808 -1.21291 4.30993 -20.5022 3.22745 7.57823 -0.744904 3.6973 -0.902039 -0.192748 -6.49545 -6.89774 -0.793846 1.76315 2.36598 0.900329 -0 0 0 -0 0 0 -1.14984e-013 -1.70166e-013 1.05008e-013 32.7288 25.8076 16.6647 25.5843 -47.0352 -97.7882 -1.56538 33.1209 5.26086 1.38106e-009 -2.72798e-009 -4.89389e-010 2.37e-009 -4.83697e-009 -8.81938e-010 1.38106e-009 -2.72796e-009 -4.89398e-010 7.73091 5.47488 0.417314 1.38106e-009 -2.72796e-009 -4.89395e-010 2.90554 0.965183 0.102902 1.38106e-009 -2.72798e-009 -4.89392e-010 10.2786 0.731801 0.0259123 1.38105e-009 -2.72797e-009 -4.89386e-010 2.22167 -0.733487 -0.20892 -1.14769e-013 -1.70152e-013 1.04859e-013 -77.5357 14.6134 0.85727 16.9683 -9.61889 -31.7446 0.194443 12.4651 -1.78031 -4.83028e-010 4.05521e-010 6.28567e-010 -8.29177e-010 7.14133e-010 1.0933e-009 -4.83032e-010 4.05522e-010 6.28576e-010 -7.73091 5.47488 -0.417314 -4.83028e-010 4.05515e-010 6.2857e-010 -2.90554 0.965183 -0.102902 -4.83033e-010 4.05512e-010 6.2857e-010 -10.2786 0.731801 -0.0259123 -4.83021e-010 4.05509e-010 6.28557e-010 -2.22167 -0.733487 0.20892 -2.03217e-016 0 -3.88251e-019 -0.969897 -13.9099 1.14959 -0.117747 27.376 0.742528 -0.466768 -15.8513 -6.77182 2.03217e-016 0 3.88251e-019 22.0778 -24.9623 12.12 0.560554 54.0661 -1.95992 -1.91186 -5.66224 -3.87945 
51.6326 63.5973 3.56203 -1.31465 4.45342 -20.3832 3.25447 7.43191 -0.671342 3.68168 -1.01432 -0.163142 -6.48701 -6.78744 -0.79045 1.92919 2.09801 0.895998 -0 0 0 -0 0 0 -1.59551e-013 -1.44553e-013 4.5889e-013 33.0345 26.1359 17.24 25.5124 -47.1619 -98.0649 -1.47458 32.2855 5.09392 2.36709e-009 -4.682e-009 -1.04776e-009 4.05827e-009 -8.28806e-009 -1.86871e-009 2.36709e-009 -4.68198e-009 -1.04777e-009 7.73091 5.47488 0.417314 2.36709e-009 -4.68199e-009 -1.04777e-009 2.90554 0.965183 0.102902 2.36709e-009 -4.68199e-009 -1.04776e-009 10.2786 0.731801 0.0259123 2.36708e-009 -4.68199e-009 -1.04776e-009 2.22167 -0.733487 -0.20892 -1.59362e-013 -1.44541e-013 4.58719e-013 -77.5092 13.8237 0.953436 16.6399 -9.29351 -31.0414 0.200547 12.6613 -1.80923 -1.71473e-009 -2.00471e-010 1.26994e-009 -2.94966e-009 -3.1023e-010 2.21876e-009 -1.71473e-009 -2.0047e-010 1.26996e-009 -7.73091 5.47488 -0.417314 -1.71473e-009 -2.00477e-010 1.26995e-009 -2.90554 0.965183 -0.102902 -1.71474e-009 -2.0048e-010 1.26995e-009 -10.2786 0.731801 -0.0259123 -1.71472e-009 -2.00483e-010 1.26994e-009 -2.22167 -0.733487 0.20892 -2.03217e-016 0 -3.88251e-019 -0.97892 -13.4395 1.27932 -0.113016 27.0241 0.734943 -0.47922 -15.9742 -7.09203 2.03217e-016 0 3.88251e-019 22.586 -25.3885 12.1346 0.510004 52.6018 -1.87766 -1.91402 -5.75994 -3.01944 
51.6832 63.5377 4.10177 -1.47654 4.60614 -20.3231 3.34007 7.32045 -0.490635 3.64459 -1.09495 -0.101919 -6.50931 -6.6844 -0.811221 2.16575 1.74881 0.858312 -0 0 0 -0 0 0 -2.08376e-013 -8.8413e-014 9.32741e-013 33.3773 26.4539 17.8356 25.4103 -47.3342 -98.4505 -1.38082 31.3781 4.91643 3.55749e-009 -6.78768e-009 -1.72671e-009 6.09697e-009 -1.20153e-008 -3.06747e-009 3.55749e-009 -6.78767e-009 -1.72672e-009 7.73091 5.47488 0.417314 3.55749e-009 -6.78767e-009 -1.72672e-009 2.90554 0.965183 0.102902 3.5575e-009 -6.78767e-009 -1.72671e-009 10.2786 0.731801 0.0259123 3.55748e-009 -6.78767e-009 -1.7267e-009 2.22167 -0.733487 -0.20892 -2.08257e-013 -8.84051e-014 9.32533e-013 -77.4564 13.0857 0.99813 16.3366 -9.00211 -30.391 0.2101 12.9556 -1.85272 -3.26879e-009 -9.23114e-010 2.17271e-009 -5.62358e-009 -1.52965e-009 3.80077e-009 -3.2688e-009 -9.23116e-010 2.17272e-009 -7.73091 5.47488 -0.417314 -3.26879e-009 -9.2312e-010 2.17271e-009 -2.90554 0.965183 -0.102902 -3.2688e-009 -9.23122e-010 2.17271e-009 -10.2786 0.731801 -0.0259123 -3.26879e-009 -9.23124e-010 2.1727e-009 -2.22167 -0.733487 0.20892 -2.03217e-016 0 -3.88251e-019 -0.877438 -12.9683 1.57161 -0.107582 26.6835 0.730837 -0.535827 -16.0762 -7.56687 2.03217e-016 0 3.88251e-019 23.2251 -25.8087 12.2986 0.465344 51.1111 -1.79408 -1.90713 -6.02436 -2.18843 
51.7106 63.4887 4.64848 -1.64964 4.76268 -20.2419 3.44868 7.21289 -0.305322 3.59058 -1.16369 -0.0396703 -6.57587 -6.55635 -0.83954 2.48504 1.36539 0.820882 -0 0 0 -0 0 0 -2.45655e-013 -2.14642e-014 1.36167e-012 33.7821 26.773 18.4124 25.2883 -47.5343 -98.9034 -1.29016 30.4527 4.73932 4.60113e-009 -8.44547e-009 -2.3154e-009 7.88505e-009 -1.49564e-008 -4.10669e-009 4.60113e-009 -8.44547e-009 -2.3154e-009 7.73091 5.47488 0.417314 4.60113e-009 -8.44547e-009 -2.3154e-009 2.90554 0.965183 0.102902 4.60114e-009 -8.44546e-009 -2.3154e-009 10.2786 0.731801 0.0259123 4.60112e-009 -8.44547e-009 -2.31538e-009 2.22167 -0.733487 -0.20892 -2.45616e-013 -2.14606e-014 1.36143e-012 -77.39 12.3657 1.0338 16.0484 -8.7321 -29.7754 0.22078 13.27 -1.89936 -4.66349e-009 -1.53398e-009 3.08364e-009 -8.02187e-009 -2.55822e-009 5.39493e-009 -4.6635e-009 -1.53398e-009 3.08366e-009 -7.73091 5.47488 -0.417314 -4.66349e-009 -1.53398e-009 3.08364e-009 -2.90554 0.965183 -0.102902 -4.6635e-009 -1.53399e-009 3.08364e-009 -10.2786 0.731801 -0.0259123 -4.66348e-009 -1.53399e-009 3.08363e-009 -2.22167 -0.733487 0.20892 -2.03217e-016 0 -3.88251e-019 -0.766301 -12.4916 1.90166 -0.102163 26.347 0.726119 -0.589266 -16.2073 -8.01912 2.03217e-016 0 3.88251e-019 23.8718 -26.2234 12.4356 0.424148 49.5702 -1.71249 -1.88811 -6.2908 -1.39129 
